grf
version=1
nRows=23
nColumns=28
inDegrees=yes
endheader
time	ground_force_1_vx	ground_force_1_vy	ground_force_1_vz	ground_force_1_px	ground_force_1_py	ground_force_1_pz	ground_moment_1_mx	ground_moment_1_my	ground_moment_1_mz	ground_force_2_vx	ground_force_2_vy	ground_force_2_vz	ground_force_2_px	ground_force_2_py	ground_force_2_pz	ground_moment_2_mx	ground_moment_2_my	ground_moment_2_mz	ground_force_3_vx	ground_force_3_vy	ground_force_3_vz	ground_force_3_px	ground_force_3_py	ground_force_3_pz	ground_moment_3_mx	ground_moment_3_my	ground_moment_3_mz
3.315000	0.000000	0.000000	0.000000	-0.227581	-0.000000	0.043463	0.000000	0.000000	0.000000	0.000000	0.000000	0.000000	-1.509314	0.000000	-0.792253	0.000000	0.000000	0.000000	0.000000	0.000000	0.000000	1.022268	0.000000	-0.575772	0.000000	0.000000	0.000000
3.315833	0.000000	0.000000	0.000000	-0.158380	0.000000	-0.235117	0.000000	0.000000	0.000000	0.000000	0.000000	0.000000	0.280872	0.000000	-0.164748	0.000000	0.000000	0.000000	0.000000	0.000000	0.000000	0.629894	-0.000000	0.035477	0.000000	0.000000	0.000000
3.316667	0.000000	0.000000	0.000000	-0.119136	0.000000	-0.273443	0.000000	0.000000	0.000000	0.000000	0.000000	0.000000	0.482271	0.000000	-0.007862	0.000000	0.000000	0.000000	0.000000	0.000000	0.000000	0.880978	0.000000	-0.376959	0.000000	0.000000	0.000000
3.317500	0.000000	0.000000	0.000000	-0.540028	0.000000	-0.446784	0.000000	0.000000	0.000000	0.000000	0.000000	0.000000	2.648653	-0.000000	1.048383	0.000000	0.000000	0.000000	0.000000	0.000000	0.000000	1.070676	0.000000	-0.590927	0.000000	0.000000	0.000000
3.318333	0.000000	0.000000	0.000000	-0.173472	0.000000	-0.377031	0.000000	0.000000	0.000000	0.000000	0.000000	0.000000	0.196925	0.000000	-0.014551	0.000000	0.000000	0.000000	0.000000	0.000000	0.000000	1.248931	0.000000	-0.370358	0.000000	0.000000	0.000000
3.319167	0.000000	0.000000	0.000000	-0.386677	0.000000	-0.003186	0.000000	0.000000	0.000000	0.000000	0.000000	0.000000	0.564543	0.000000	-0.601909	0.000000	0.000000	0.000000	0.000000	0.000000	0.000000	1.104100	0.000000	-0.230286	0.000000	0.000000	0.000000
3.320000	0.000000	0.000000	0.000000	-0.082237	0.000000	-0.461287	0.000000	0.000000	0.000000	0.000000	0.000000	0.000000	0.316108	-0.000000	0.293633	0.000000	0.000000	0.000000	0.000000	0.000000	0.000000	0.926501	0.000000	-0.449800	0.000000	0.000000	0.000000
3.320833	0.000000	0.000000	0.000000	-0.050288	0.000000	-0.412609	0.000000	0.000000	0.000000	0.000000	0.000000	0.000000	0.264876	0.000000	-0.048485	0.000000	0.000000	0.000000	0.000000	0.000000	0.000000	0.814237	0.000000	-0.405171	0.000000	0.000000	0.000000
3.321667	0.000000	0.000000	0.000000	0.243779	-0.000000	1.009100	0.000000	0.000000	0.000000	0.000000	0.000000	0.000000	-2.584673	0.000000	-0.235446	0.000000	0.000000	0.000000	0.000000	0.000000	0.000000	0.984421	0.000000	-0.414859	0.000000	0.000000	0.000000
3.322500	0.000000	0.000000	0.000000	-0.567633	0.000000	-0.447629	0.000000	0.000000	0.000000	0.000000	0.000000	0.000000	0.022769	0.000000	-0.216323	0.000000	0.000000	0.000000	0.000000	0.000000	0.000000	0.772459	0.000000	-0.391548	0.000000	0.000000	0.000000
3.323333	0.000000	0.000000	0.000000	-2.526457	0.000000	-0.581109	0.000000	0.000000	0.000000	0.000000	0.000000	0.000000	0.669075	0.000000	-0.313011	0.000000	0.000000	0.000000	0.000000	0.000000	0.000000	0.911518	0.000000	-0.288024	0.000000	0.000000	0.000000
3.324167	0.000000	0.000000	0.000000	-0.243113	0.000000	-0.404396	0.000000	0.000000	0.000000	0.000000	0.000000	0.000000	-0.040056	0.000000	-0.284871	0.000000	0.000000	0.000000	0.000000	0.000000	0.000000	0.594882	-0.000000	0.194250	0.000000	0.000000	0.000000
3.325000	0.000000	0.000000	0.000000	-0.309084	0.000000	-0.512766	0.000000	0.000000	0.000000	0.000000	0.000000	0.000000	0.712159	0.000000	-0.289369	0.000000	0.000000	0.000000	0.000000	0.000000	0.000000	1.641614	0.000000	-1.160276	0.000000	0.000000	0.000000
3.325833	0.000000	0.000000	0.000000	-0.830571	0.000000	-0.534937	0.000000	0.000000	0.000000	0.000000	0.000000	0.000000	0.181283	0.000000	-0.346173	0.000000	0.000000	0.000000	0.000000	0.000000	0.000000	1.021181	0.000000	-0.423478	0.000000	0.000000	0.000000
3.326667	0.000000	0.000000	0.000000	-0.216590	0.000000	-0.279046	0.000000	0.000000	0.000000	0.000000	0.000000	0.000000	-0.073392	0.000000	-0.330820	0.000000	0.000000	0.000000	0.000000	0.000000	0.000000	1.174000	0.000000	-0.464294	0.000000	0.000000	0.000000
3.327500	0.000000	0.000000	0.000000	-0.241760	0.000000	-0.268570	0.000000	0.000000	0.000000	0.000000	0.000000	0.000000	-1.523497	-0.000000	1.682375	0.000000	0.000000	0.000000	0.000000	0.000000	0.000000	0.131785	0.000000	-0.298359	0.000000	0.000000	0.000000
3.328333	0.000000	0.000000	0.000000	-0.689511	0.000000	-0.662926	0.000000	0.000000	0.000000	0.000000	0.000000	0.000000	0.460915	0.000000	-0.312878	0.000000	0.000000	0.000000	0.000000	0.000000	0.000000	0.826593	0.000000	-0.133341	0.000000	0.000000	0.000000
3.329167	0.000000	0.000000	0.000000	0.299588	-0.000000	0.376648	0.000000	0.000000	0.000000	0.000000	0.000000	0.000000	0.242392	0.000000	-0.129973	0.000000	0.000000	0.000000	0.000000	0.000000	0.000000	0.692273	-0.000000	0.078512	0.000000	0.000000	0.000000
3.330000	0.000000	0.000000	0.000000	-0.330654	0.000000	-0.348816	0.000000	0.000000	0.000000	0.000000	0.000000	0.000000	0.404231	0.000000	-0.727087	0.000000	0.000000	0.000000	0.000000	0.000000	0.000000	0.997407	0.000000	-0.379118	0.000000	0.000000	0.000000
3.330833	0.000000	0.000000	0.000000	-0.313615	0.000000	-0.906997	0.000000	0.000000	0.000000	0.000000	0.000000	0.000000	0.290254	0.000000	-0.066313	0.000000	0.000000	0.000000	0.000000	0.000000	0.000000	0.933638	0.000000	-0.712996	0.000000	0.000000	0.000000
3.331667	0.000000	0.000000	0.000000	-0.281123	0.000000	-0.509640	0.000000	0.000000	0.000000	0.000000	0.000000	0.000000	0.057038	0.000000	-0.720926	0.000000	0.000000	0.000000	0.000000	0.000000	0.000000	1.067331	0.000000	-0.412654	0.000000	0.000000	0.000000
3.332500	0.000000	0.000000	0.000000	-1.410471	0.000000	-1.048617	0.000000	0.000000	0.000000	0.000000	0.000000	0.000000	0.420573	-0.000000	0.304956	0.000000	0.000000	0.000000	0.000000	0.000000	0.000000	2.112307	0.000000	-0.619857	0.000000	0.000000	0.000000
3.333333	0.000000	0.000000	0.000000	0.813729	0.000000	-0.798691	0.000000	0.000000	0.000000	0.000000	0.000000	0.000000	0.061283	0.000000	-0.211086	0.000000	0.000000	0.000000	0.000000	0.000000	0.000000	0.945557	0.000000	-0.273722	0.000000	0.000000	0.000000
